<svg width="226" height="68" viewBox="0 0 226 68" fill="none" xmlns="http://www.w3.org/2000/svg">
<g clip-path="url(#clip0)">
<path d="M48.703 48.6385C47.7547 48.6991 46.8045 48.5555 45.9159 48.2174C45.0273 47.8794 44.2207 47.3546 43.5502 46.6781L34.3144 37.3682C33.7648 36.8163 33.0197 36.5063 32.2427 36.5063C31.4657 36.5063 30.7205 36.8163 30.171 37.3682L20.89 46.6781C20.2194 47.3546 19.4129 47.8794 18.5243 48.2174C17.6357 48.5555 16.6854 48.6991 15.7372 48.6385C14.0572 48.515 12.4796 47.7803 11.3 46.5721L1.95869 37.179C0.70695 35.9152 0.00424194 34.2048 0.00424194 32.4219C0.00424194 30.6389 0.70695 28.9285 1.95869 27.6648L27.6323 1.93011C28.8511 0.708506 30.5023 0.0224609 32.2239 0.0224609C33.9454 0.0224609 35.5966 0.708506 36.8154 1.93011L43.829 8.95416C44.0478 8.46896 44.3661 8.03565 44.7631 7.68256C45.2998 7.20788 45.9624 6.90039 46.6701 6.79761C47.3777 6.69482 48.0999 6.80118 48.7484 7.10371C49.3969 7.40624 49.9438 7.89187 50.3224 8.50135C50.7009 9.11083 50.8947 9.81782 50.8801 10.5361V16.0388L62.4815 27.6875C63.7332 28.9512 64.4359 30.6616 64.4359 32.4446C64.4359 34.2275 63.7332 35.9379 62.4815 37.2017L60.2215 39.4724L57.3664 36.6038L59.6264 34.333C59.8751 34.0854 60.0725 33.7906 60.2072 33.4658C60.342 33.141 60.4113 32.7927 60.4113 32.4408C60.4113 32.0889 60.342 31.7406 60.2072 31.4158C60.0725 31.091 59.8751 30.7962 59.6264 30.5485L34.2918 5.07882C33.7422 4.52695 32.9971 4.21693 32.2201 4.21693C31.4431 4.21693 30.698 4.52695 30.1484 5.07882L4.81382 30.5334C4.56509 30.7811 4.36767 31.0759 4.23293 31.4006C4.0982 31.7254 4.02883 32.0738 4.02883 32.4257C4.02883 32.7775 4.0982 33.1259 4.23293 33.4507C4.36767 33.7755 4.56509 34.0702 4.81382 34.3179L14.2682 43.8095C14.769 44.3086 15.446 44.5887 16.1515 44.5887C16.857 44.5887 17.5339 44.3086 18.0348 43.8095L27.6248 34.1817C28.2279 33.5747 28.9442 33.0932 29.7327 32.7647C30.5212 32.4362 31.3665 32.2671 32.2201 32.2671C33.0737 32.2671 33.9189 32.4362 34.7075 32.7647C35.496 33.0932 36.2123 33.5747 36.8154 34.1817L46.4054 43.8095C46.6756 44.0743 46.9985 44.2787 47.353 44.4091C47.7075 44.5396 48.0854 44.5932 48.462 44.5664C49.1362 44.5057 49.7667 44.2051 50.2398 43.7186L52.4019 41.5463L55.257 44.415L53.1326 46.5494C51.9584 47.7643 50.3834 48.5071 48.703 48.6385Z" fill="#505050"/>
<path d="M48.703 64.7907C47.7542 64.8503 46.8036 64.7056 45.915 64.3662C45.0263 64.0268 44.2201 63.5006 43.5502 62.8228L34.3068 53.528C34.0354 53.255 33.713 53.0384 33.3582 52.8906C33.0033 52.7428 32.623 52.6668 32.2389 52.6668C31.8548 52.6668 31.4745 52.7428 31.1196 52.8906C30.7648 53.0384 30.4425 53.255 30.171 53.528L20.8899 62.8228C20.2194 63.4992 19.4129 64.024 18.5243 64.3621C17.6356 64.7002 16.6854 64.8437 15.7371 64.7831C14.0564 64.6624 12.478 63.9273 11.3 62.7168L1.95867 53.3312C0.70326 52.0694 -0.00198364 50.3583 -0.00198364 48.5741C-0.00198364 46.7899 0.70326 45.0788 1.95867 43.817L4.21867 41.5463L7.07381 44.4149L4.81381 46.6856C4.56508 46.9333 4.36765 47.2281 4.23292 47.5529C4.09819 47.8776 4.02882 48.226 4.02882 48.5779C4.02882 48.9297 4.09819 49.2781 4.23292 49.6029C4.36765 49.9277 4.56508 50.2224 4.81381 50.4701L14.2003 59.8936C14.6735 60.38 15.304 60.6806 15.9782 60.7413C16.3548 60.7681 16.7327 60.7145 17.0872 60.5841C17.4416 60.4536 17.7646 60.2492 18.0348 59.9844L27.6247 50.3415C28.2279 49.7345 28.9442 49.253 29.7327 48.9245C30.5212 48.596 31.3665 48.4269 32.2201 48.4269C33.0737 48.4269 33.9189 48.596 34.7075 48.9245C35.496 49.253 36.2123 49.7345 36.8154 50.3415L46.4053 59.9617C46.6756 60.2265 46.9985 60.4309 47.353 60.5614C47.7075 60.6918 48.0854 60.7454 48.4619 60.7186C49.1362 60.6579 49.7667 60.3573 50.2398 59.8708L59.6263 50.4626C60.125 49.9603 60.4051 49.2798 60.4051 48.5703C60.4051 47.8609 60.125 47.1804 59.6263 46.6781L34.3219 21.1932C34.0504 20.9202 33.7281 20.7036 33.3732 20.5558C33.0184 20.408 32.6381 20.332 32.254 20.332C31.8699 20.332 31.4895 20.408 31.1347 20.5558C30.7799 20.7036 30.4575 20.9202 30.1861 21.1932L12.0533 39.4269L9.18314 36.5583L27.6699 18.0369C28.889 16.813 30.5419 16.1255 32.2653 16.1255C33.9887 16.1255 35.6415 16.813 36.8606 18.0369L62.4739 43.8094C63.7257 45.0732 64.4284 46.7836 64.4284 48.5665C64.4284 50.3495 63.7257 52.0599 62.4739 53.3237L53.1326 62.7168C51.9577 63.9284 50.3821 64.6661 48.703 64.7907Z" fill="#505050"/>
<path d="M73.0131 44.2788C72.9027 44.1476 72.8193 43.9959 72.7676 43.8322C72.7159 43.6685 72.6969 43.4962 72.7117 43.3251V22.0107C72.6944 21.8372 72.7121 21.6619 72.7639 21.4954C72.8157 21.3289 72.9005 21.1747 73.0131 21.0419C73.2823 20.8298 73.6212 20.7271 73.9623 20.7543H80.4334C83.0801 20.7543 85.0513 21.2942 86.3471 22.3741C86.9891 22.9068 87.4994 23.5819 87.8379 24.3463C88.1764 25.1106 88.334 25.9434 88.2982 26.7792C88.295 27.9183 87.9191 29.0247 87.2285 29.9279C86.5717 30.8511 85.6565 31.5571 84.5993 31.9564V32.0927C85.3451 32.2447 86.0493 32.5572 86.6635 33.0085C87.4041 33.5254 88.0279 34.1934 88.4941 34.9689C88.9996 35.7916 89.261 36.7421 89.2474 37.7089C89.3092 38.6739 89.1451 39.64 88.7683 40.5299C88.3916 41.4197 87.8126 42.2085 87.0778 42.8331C85.6314 43.9987 83.4869 44.5815 80.6443 44.5815H73.9623C73.792 44.5965 73.6205 44.5774 73.4576 44.5254C73.2947 44.4735 73.1436 44.3897 73.0131 44.2788ZM80.0643 30.5259C81.0272 30.5751 81.9743 30.2651 82.7235 29.6555C83.0428 29.3882 83.298 29.052 83.4702 28.672C83.6424 28.292 83.727 27.8779 83.7179 27.4604C83.7179 25.5076 82.5 24.5312 80.0643 24.5312H77.1489V30.5259H80.0643ZM81.0436 40.7743C82.0244 40.8369 82.9926 40.5262 83.7556 39.9039C84.0817 39.5858 84.3354 39.2005 84.4992 38.7746C84.6631 38.3487 84.7332 37.8921 84.7048 37.4364C84.7224 36.9977 84.6327 36.5613 84.4436 36.1654C84.2545 35.7696 83.9717 35.4263 83.62 35.1657C82.6882 34.5808 81.5978 34.303 80.5012 34.3709H77.1489V40.8046L81.0436 40.7743Z" fill="#505050"/>
<path d="M91.4773 43.4764C91.015 42.9926 90.6567 42.4183 90.4247 41.7894C90.1927 41.1605 90.092 40.4903 90.1288 39.8206C90.1288 35.6425 93.5489 33.5434 100.389 33.5232V32.2289C100.389 30.7151 99.3847 29.9582 97.3759 29.9582C96.6327 29.9471 95.8918 30.0439 95.1761 30.2458C94.6098 30.4175 94.0539 30.6222 93.5113 30.8589C93.2523 30.996 92.9796 31.1051 92.6977 31.1843C92.4064 31.1843 92.0749 30.8664 91.7033 30.2306C91.4041 29.8059 91.2104 29.3154 91.1383 28.8001C91.1383 28.4368 91.4321 28.0811 92.0046 27.7253C92.7418 27.3177 93.5371 27.0266 94.3625 26.8624C95.4188 26.6285 96.4977 26.5143 97.5793 26.5218C99.9749 26.5218 101.753 27.0264 102.913 28.0356C103.494 28.5356 103.953 29.1624 104.256 29.8682C104.559 30.574 104.698 31.34 104.661 32.1078V38.9199C104.633 40.0514 104.701 41.1833 104.864 42.3032C104.958 42.7352 105.026 43.1725 105.067 43.6127C105.067 43.9381 104.698 44.1803 103.952 44.3696C103.296 44.5311 102.624 44.6174 101.949 44.6269C101.789 44.6293 101.632 44.5838 101.497 44.4962C101.363 44.4085 101.258 44.2828 101.195 44.1349C101.032 43.7931 100.914 43.432 100.841 43.0601C100.758 42.6741 100.706 42.4168 100.683 42.3032C100.12 42.9819 99.4445 43.558 98.6867 44.0063C97.7051 44.5799 96.5822 44.8633 95.4473 44.8237C94.7294 44.8792 94.0077 44.7885 93.3255 44.557C92.6433 44.3254 92.0147 43.9579 91.4773 43.4764ZM98.7319 40.7516C99.388 40.3334 99.952 39.7847 100.389 39.1394V36.5508C98.9119 36.494 97.4366 36.7068 96.0349 37.179C95.5601 37.3303 95.1484 37.6349 94.8636 38.0455C94.5789 38.4562 94.4372 38.9498 94.4605 39.4497C94.4464 39.7153 94.4874 39.9809 94.5808 40.2297C94.6741 40.4785 94.8179 40.7052 95.0029 40.8954C95.4332 41.271 95.9934 41.4613 96.5623 41.4252C97.3357 41.4204 98.0905 41.186 98.7319 40.7516Z" fill="#505050"/>
<path d="M108.985 43.5673C108.111 42.7296 107.674 41.4126 107.674 39.6162V30.2155H106.762C106.627 30.2268 106.491 30.2011 106.369 30.1411C106.247 30.0812 106.144 29.9892 106.069 29.8749C105.895 29.529 105.819 29.1412 105.851 28.7547V28.24C105.82 27.8535 105.896 27.466 106.069 27.1198C106.144 27.0055 106.247 26.9135 106.369 26.8536C106.491 26.7936 106.627 26.7679 106.762 26.7792H107.674L108.118 23.4412C108.231 22.7827 108.751 22.4573 109.678 22.4573H110.491C111.463 22.4573 111.945 22.7827 111.945 23.4412V26.7792H114.017C114.152 26.7679 114.288 26.7936 114.41 26.8536C114.532 26.9135 114.636 27.0055 114.71 27.1198C114.88 27.4672 114.956 27.8538 114.929 28.24V28.7623C114.956 29.1486 114.881 29.5353 114.71 29.8825C114.636 29.9967 114.532 30.0887 114.41 30.1487C114.288 30.2086 114.152 30.2344 114.017 30.2231H111.945V39.5481C111.898 40.0516 112.022 40.5563 112.299 40.9787C112.437 41.121 112.604 41.2314 112.789 41.302C112.974 41.3726 113.172 41.4017 113.369 41.3874C113.587 41.3883 113.804 41.3654 114.017 41.3193C114.172 41.2797 114.331 41.2569 114.492 41.2511C114.763 41.2511 114.981 41.5388 115.162 42.114C115.309 42.5262 115.4 42.9565 115.433 43.3932C115.433 44.3469 114.439 44.8237 112.458 44.8237C111.825 44.8554 111.192 44.7607 110.596 44.545C110 44.3293 109.452 43.997 108.985 43.5673Z" fill="#505050"/>
<path d="M118.552 43.7187C117.523 42.8933 116.741 41.7984 116.292 40.5548C115.717 38.9909 115.441 37.332 115.478 35.6653C115.478 32.8269 116.111 30.6016 117.377 28.9743C118.468 27.6565 120.018 26.8056 121.711 26.5947C123.404 26.3839 125.114 26.8287 126.492 27.8389V19.899C126.492 19.2708 127.087 18.9453 128.285 18.9453H128.963C130.161 18.9453 130.764 19.2708 130.764 19.899V38.9351C130.736 40.0666 130.804 41.1985 130.967 42.3184C131.056 42.751 131.121 43.1881 131.163 43.6279C131.163 43.9533 130.794 44.1955 130.048 44.3848C129.4 44.5502 128.735 44.6416 128.067 44.6572C127.907 44.6586 127.75 44.6127 127.616 44.5252C127.482 44.4377 127.377 44.3125 127.313 44.1653C127.151 43.8235 127.032 43.4623 126.959 43.0905C126.876 42.7044 126.831 42.4471 126.809 42.3336C126.269 43.1233 125.546 43.7686 124.702 44.2132C123.858 44.6577 122.918 44.8882 121.965 44.8843C120.728 44.8962 119.525 44.4851 118.552 43.7187ZM126.485 39.1773V30.9649C125.606 30.3341 124.551 30.0001 123.471 30.0112C121.031 30.0112 119.81 31.8732 119.81 35.5971C119.726 37.056 120.006 38.5129 120.624 39.8358C120.851 40.2858 121.201 40.661 121.634 40.9172C122.066 41.1734 122.563 41.2998 123.065 41.2815C124.33 41.2815 125.47 40.5675 126.485 39.1394V39.1773Z" fill="#505050"/>
<path d="M134.38 42.4772C133.004 40.9129 132.313 38.6422 132.308 35.6651C132.303 32.688 132.993 30.4172 134.38 28.853C135.758 27.2862 137.762 26.5066 140.406 26.5066C143.05 26.5066 145.024 27.2635 146.388 28.853C147.751 30.4425 148.437 32.6905 148.437 35.6651C148.437 38.6397 147.759 40.9029 146.388 42.4772C145.017 44.0516 143.028 44.8085 140.406 44.8085C137.785 44.8085 135.758 44.0364 134.38 42.4772ZM143.171 39.9719C143.856 38.6457 144.166 37.1561 144.067 35.6651C144.164 34.1864 143.854 32.7096 143.171 31.3962C142.846 30.9577 142.423 30.6016 141.936 30.3563C141.45 30.111 140.913 29.9833 140.369 29.9833C139.824 29.9833 139.287 30.111 138.801 30.3563C138.314 30.6016 137.892 30.9577 137.566 31.3962C136.867 32.7043 136.549 34.1837 136.647 35.6651C136.546 37.1588 136.865 38.651 137.566 39.9719C137.892 40.4104 138.314 40.7664 138.801 41.0117C139.287 41.257 139.824 41.3848 140.369 41.3848C140.913 41.3848 141.45 41.257 141.936 41.0117C142.423 40.7664 142.846 40.4104 143.171 39.9719Z" fill="#505050"/>
<path d="M149.996 43.6655V32.5012C150.024 31.3848 149.956 30.268 149.793 29.1633C149.698 28.7366 149.63 28.3043 149.589 27.869C149.589 27.5511 149.966 27.3089 150.712 27.1121C151.366 26.9565 152.036 26.8728 152.708 26.8623C152.878 26.8507 153.047 26.8916 153.192 26.9796C153.338 27.0676 153.453 27.1984 153.522 27.3543C153.681 27.6791 153.8 28.0223 153.876 28.3761C153.959 28.7243 154.004 28.959 154.027 29.0725C154.639 28.3024 155.41 27.6748 156.287 27.2332C157.169 26.7653 158.152 26.5211 159.149 26.5217C162.579 26.5217 164.294 28.3585 164.294 32.032V43.6655C164.31 43.8199 164.278 43.9754 164.202 44.1107C164.127 44.2461 164.012 44.3549 163.873 44.4224C163.441 44.6095 162.971 44.69 162.502 44.6571H161.861C160.656 44.6571 160.061 44.3316 160.061 43.6731V32.6375C160.061 30.9572 159.215 30.117 157.522 30.117C156.858 30.1196 156.211 30.3343 155.676 30.7301C155.107 31.1311 154.628 31.6466 154.268 32.2439V43.6655C154.268 44.324 153.665 44.6495 152.475 44.6495H151.797C150.599 44.6571 149.996 44.324 149.996 43.6655Z" fill="#505050"/>
<path d="M185.026 44.5512C184.287 44.3929 183.579 44.1115 182.932 43.7186C182.39 43.3628 182.118 42.9995 182.118 42.6135C182.17 42.0847 182.368 41.5811 182.691 41.1603C183.078 40.585 183.417 40.2974 183.708 40.2974C183.973 40.365 184.227 40.4721 184.461 40.6153C184.88 40.8394 185.316 41.0292 185.764 41.183C186.273 41.3473 186.805 41.4266 187.339 41.4176C188.966 41.4176 189.78 40.7818 189.78 39.5102C189.789 39.2266 189.724 38.9455 189.592 38.6947C189.46 38.4439 189.265 38.2319 189.026 38.0797C188.292 37.6187 187.502 37.2525 186.676 36.9897C185.523 36.624 184.469 35.9974 183.595 35.158C182.82 34.2537 182.43 33.079 182.51 31.8882C182.484 31.1582 182.618 30.4313 182.905 29.7599C183.192 29.0885 183.623 28.4892 184.167 28.0053C185.377 26.9676 186.932 26.4269 188.522 26.4915C189.647 26.4853 190.768 26.6512 191.844 26.9835C192.876 27.3165 193.396 27.7404 193.396 28.2929C193.36 28.8284 193.198 29.3476 192.921 29.8067C192.605 30.4123 192.318 30.7075 192.047 30.7075C191.733 30.6052 191.426 30.4813 191.128 30.3366C190.484 30.0701 189.791 29.9412 189.094 29.9581C188.526 29.9323 187.962 30.0688 187.467 30.3517C187.276 30.4641 187.119 30.626 187.011 30.8204C186.904 31.0148 186.851 31.2346 186.857 31.4568C186.844 31.8984 187.004 32.3275 187.301 32.6527C187.584 32.9667 187.924 33.2236 188.303 33.4096C188.672 33.5912 189.335 33.8713 190.284 34.2573C191.379 34.6391 192.366 35.2804 193.162 36.1269C193.827 37.0296 194.15 38.1403 194.074 39.2604C194.101 40.0262 193.959 40.7886 193.658 41.4927C193.358 42.1968 192.905 42.8252 192.334 43.3326C191.021 44.4037 189.358 44.9436 187.67 44.8464C186.781 44.8517 185.893 44.7526 185.026 44.5512Z" fill="#505050"/>
<path d="M196.515 43.4765C196.051 42.993 195.692 42.419 195.459 41.7901C195.225 41.1612 195.123 40.4908 195.159 39.8206C195.159 35.6425 198.581 33.5434 205.427 33.5232V32.2289C205.427 30.7151 204.422 29.9582 202.413 29.9582C201.67 29.9466 200.929 30.0434 200.213 30.2458C199.647 30.4175 199.091 30.6223 198.549 30.8589C198.29 30.9961 198.017 31.1052 197.735 31.1844C197.441 31.1844 197.11 30.8665 196.733 30.2307C196.439 29.8041 196.248 29.3142 196.176 28.8001C196.176 28.4368 196.469 28.0811 197.042 27.7253C197.779 27.3165 198.574 27.0254 199.4 26.8625C200.456 26.6282 201.535 26.514 202.617 26.5219C205.012 26.5219 206.79 27.0265 207.95 28.0357C208.531 28.5356 208.991 29.1625 209.294 29.8683C209.597 30.5741 209.735 31.3401 209.698 32.1078V38.9199C209.67 40.0514 209.738 41.1833 209.901 42.3033C209.995 42.7353 210.063 43.1725 210.105 43.6127C210.105 43.9382 209.728 44.1804 208.99 44.3696C208.334 44.5311 207.661 44.6174 206.986 44.6269C206.826 44.6293 206.669 44.5838 206.535 44.4962C206.401 44.4086 206.295 44.2828 206.233 44.135C206.071 43.7921 205.949 43.4314 205.871 43.0602C205.796 42.6741 205.743 42.4168 205.72 42.3033C205.155 42.9941 204.475 43.5807 203.709 44.0366C202.727 44.6102 201.604 44.8936 200.47 44.854C199.752 44.9034 199.032 44.8068 198.352 44.5701C197.673 44.3334 197.048 43.9614 196.515 43.4765ZM203.769 40.7516C204.425 40.3334 204.989 39.7848 205.427 39.1394V36.5508C203.949 36.494 202.474 36.7069 201.072 37.179C200.597 37.3303 200.186 37.6349 199.901 38.0456C199.616 38.4562 199.474 38.9498 199.498 39.4497C199.484 39.7153 199.525 39.9809 199.618 40.2297C199.711 40.4786 199.855 40.7052 200.04 40.8954C200.471 41.271 201.031 41.4613 201.6 41.4253C202.373 41.4204 203.128 41.186 203.769 40.7516Z" fill="#505050"/>
<path d="M211.687 43.6655V32.5012C211.714 31.3848 211.646 30.268 211.483 29.1633C211.388 28.7366 211.32 28.3043 211.28 27.869C211.28 27.5511 211.649 27.3089 212.395 27.1121C213.052 26.9565 213.724 26.8727 214.399 26.8623C214.568 26.8507 214.737 26.8916 214.883 26.9796C215.028 27.0676 215.143 27.1984 215.212 27.3543C215.368 27.6804 215.487 28.0232 215.566 28.3761C215.642 28.7243 215.694 28.9589 215.717 29.0725C216.331 28.3039 217.101 27.6766 217.977 27.2332C218.86 26.7659 219.842 26.5217 220.84 26.5217C224.275 26.5217 225.992 28.3585 225.992 32.032V43.6655C226.002 43.8191 225.967 43.972 225.892 44.1062C225.817 44.2404 225.706 44.3502 225.571 44.4224C225.139 44.6087 224.669 44.6891 224.2 44.6571H223.552C222.354 44.6571 221.759 44.3316 221.759 43.6731V32.6375C221.759 30.9572 220.91 30.117 219.212 30.117C218.548 30.1207 217.902 30.3353 217.367 30.7301C216.802 31.1335 216.325 31.6486 215.966 32.2439V43.6655C215.966 44.324 215.363 44.6495 214.165 44.6495H213.487C212.297 44.6571 211.687 44.324 211.687 43.6655Z" fill="#505050"/>
<path d="M181.049 27.5133V41.7733C181.049 45.3055 180.381 47.8512 179.045 49.4104C177.711 50.9924 175.572 51.7795 172.611 51.7795C171.328 51.8068 170.05 51.5938 168.845 51.1513C167.775 50.7274 167.18 50.2355 167.067 49.6375C166.945 49.1708 166.889 48.6893 166.901 48.207C166.901 47.4501 167.052 47.0186 167.368 47.0186C167.477 47.0285 167.582 47.0621 167.677 47.117L168.016 47.2911C169.041 47.9415 170.224 48.2951 171.436 48.3129C173.269 48.3129 174.618 47.8992 175.481 47.0716C176.345 46.2441 176.782 44.9321 176.792 43.1357C175.578 44.2188 174.009 44.812 172.385 44.8009C171.433 44.8333 170.488 44.63 169.633 44.2089C168.778 43.7879 168.039 43.162 167.481 42.3864C166.268 40.7515 165.666 38.5338 165.666 35.7181C165.628 34.0525 165.91 32.3952 166.494 30.8361C166.959 29.5868 167.756 28.4897 168.799 27.6647C169.774 26.905 170.971 26.4923 172.204 26.4915C173.147 26.4761 174.078 26.6988 174.913 27.1392C175.747 27.5796 176.458 28.2235 176.981 29.012C177.038 28.5437 177.142 28.0823 177.289 27.6344C177.39 27.3389 177.586 27.0859 177.847 26.9153C178.216 26.723 178.63 26.6366 179.045 26.6656H179.384C180.446 26.6958 181.003 26.9683 181.049 27.5133ZM176.777 32.2061C175.773 30.773 174.643 30.059 173.387 30.064C172.876 30.0473 172.37 30.1755 171.928 30.4338C171.486 30.6921 171.125 31.0702 170.886 31.5249C170.246 32.836 169.953 34.2905 170.035 35.7484C169.952 37.2036 170.29 38.6517 171.007 39.9189C171.309 40.3794 171.726 40.7519 172.216 40.999C172.707 41.2462 173.254 41.3592 173.802 41.3267C174.881 41.3352 175.935 41.0015 176.815 40.373V32.2061H176.777Z" fill="#505050"/>
<path d="M164.385 21.7609V20.0655C164.385 19.687 164.739 19.4978 165.462 19.4978H166.005C166.758 19.4978 167.082 19.687 167.082 20.0655V21.7609C167.082 22.1545 166.728 22.3513 166.005 22.3513H165.462C164.739 22.3513 164.385 22.1545 164.385 21.7609Z" fill="#505050"/>
<path d="M169.116 21.125C168.277 20.247 167.858 18.872 167.858 16.9999C167.858 15.1228 168.295 13.7301 169.176 12.837C169.68 12.3676 170.274 12.0061 170.922 11.7745C171.569 11.5429 172.257 11.446 172.943 11.4897C173.709 11.4789 174.473 11.5939 175.203 11.8303C175.881 12.0649 176.22 12.3677 176.22 12.731C176.174 13.0388 176.052 13.3302 175.866 13.5787C175.625 13.9572 175.436 14.1389 175.286 14.1389L174.984 14.0177C174.384 13.7124 173.721 13.5517 173.048 13.5485C172.687 13.5239 172.326 13.5867 171.994 13.7316C171.663 13.8765 171.37 14.0992 171.142 14.3811C170.67 15.1514 170.454 16.0526 170.525 16.9545C170.457 17.8668 170.662 18.7785 171.112 19.5734C171.339 19.8626 171.634 20.0903 171.971 20.2357C172.308 20.3811 172.676 20.4397 173.041 20.406C173.414 20.4125 173.786 20.3692 174.148 20.2773C174.484 20.1757 174.813 20.0544 175.135 19.914C175.234 19.8701 175.338 19.8372 175.444 19.8156C175.632 19.8156 175.836 19.9897 176.054 20.3454C176.229 20.5946 176.34 20.8831 176.378 21.1856C176.378 21.4581 176.175 21.6927 175.775 21.8895C175.328 22.1006 174.854 22.2483 174.367 22.3285C173.897 22.4185 173.421 22.4667 172.943 22.4723C172.247 22.5249 171.548 22.4324 170.889 22.2005C170.231 21.9686 169.627 21.6025 169.116 21.125Z" fill="#505050"/>
<path d="M178.186 21.0495C177.287 19.8947 176.845 18.4473 176.943 16.9849C176.841 15.5151 177.284 14.0594 178.186 12.8976C178.649 12.4115 179.214 12.0335 179.838 11.7902C180.463 11.547 181.133 11.4444 181.802 11.4898C182.465 11.4398 183.131 11.5373 183.752 11.7754C184.373 12.0135 184.934 12.3864 185.395 12.8674C186.285 14.0348 186.721 15.4876 186.623 16.9546C186.722 18.417 186.285 19.8653 185.395 21.0268C184.41 21.9299 183.124 22.4305 181.791 22.4305C180.457 22.4305 179.171 21.9299 178.186 21.0268V21.0495ZM183.459 19.5357C183.875 18.7424 184.062 17.8488 184.002 16.9546C184.06 16.0654 183.872 15.1774 183.459 14.3887C183.281 14.1109 183.031 13.8859 182.738 13.7369C182.444 13.5879 182.115 13.5203 181.787 13.541C181.457 13.5191 181.127 13.5853 180.831 13.7329C180.534 13.8804 180.282 14.1041 180.099 14.3812C179.68 15.1677 179.489 16.0569 179.549 16.9471C179.487 17.8423 179.677 18.7372 180.099 19.5281C180.28 19.8077 180.532 20.0337 180.828 20.1828C181.125 20.3318 181.456 20.3985 181.787 20.3758C182.114 20.3997 182.442 20.3351 182.736 20.1887C183.03 20.0423 183.28 19.8194 183.459 19.5432V19.5357Z" fill="#505050"/>
<path d="M202.579 14.7973V21.7608C202.579 22.1544 202.225 22.3512 201.502 22.3512H201.095C200.379 22.3512 200.018 22.1544 200.018 21.7608V15.1379C200.05 14.9358 200.034 14.7289 199.973 14.5337C199.912 14.3385 199.806 14.1603 199.664 14.0134C199.522 13.8665 199.348 13.7548 199.156 13.6872C198.963 13.6196 198.758 13.598 198.556 13.6241C198.142 13.6194 197.739 13.7614 197.419 14.0253C197.123 14.2706 196.869 14.5619 196.665 14.8881V21.7532C196.665 22.1468 196.311 22.3436 195.588 22.3436H195.204C194.923 22.3619 194.642 22.3153 194.383 22.2074C194.301 22.1641 194.234 22.0984 194.188 22.0179C194.143 21.9375 194.122 21.8456 194.126 21.7532V15.1379C194.159 14.9358 194.143 14.7289 194.082 14.5337C194.021 14.3385 193.915 14.1603 193.773 14.0134C193.631 13.8665 193.457 13.7548 193.265 13.6872C193.072 13.6196 192.867 13.598 192.665 13.6241C192.225 13.6144 191.798 13.7711 191.467 14.0631C191.181 14.2929 190.939 14.5723 190.752 14.8881V21.7532C190.752 22.1468 190.39 22.3436 189.674 22.3436H189.267C188.514 22.3436 188.19 22.1468 188.19 21.7532V15.0622C188.208 14.3914 188.168 13.7203 188.07 13.0564C188.013 12.8071 187.972 12.5543 187.949 12.2995C187.949 12.1103 188.168 11.9589 188.62 11.8605C189.012 11.7635 189.414 11.7127 189.817 11.7092C189.914 11.7032 190.011 11.7267 190.094 11.7767C190.177 11.8267 190.244 11.9007 190.284 11.9892C190.38 12.1811 190.451 12.3846 190.495 12.5947C190.535 12.7389 190.565 12.8856 190.586 13.0337C190.953 12.5841 191.406 12.2134 191.919 11.9438C192.445 11.6523 193.036 11.5011 193.637 11.5048C195.061 11.5048 195.98 12.0346 196.386 13.0943C196.773 12.6282 197.246 12.2425 197.78 11.9589C198.325 11.6597 198.937 11.5035 199.558 11.5048C201.569 11.4897 202.579 12.5872 202.579 14.7973Z" fill="#505050"/>
<path d="M203.822 21.7609V20.0655C203.822 19.687 204.183 19.4978 204.899 19.4978H205.449C206.165 19.4978 206.526 19.687 206.526 20.0655V21.7609C206.526 22.1545 206.165 22.3513 205.449 22.3513H204.907C204.153 22.3513 203.822 22.1545 203.822 21.7609Z" fill="#505050"/>
<path d="M209.939 21.9501L206.707 12.3299C206.665 12.2178 206.637 12.1008 206.624 11.9817C206.624 11.7092 207.001 11.573 207.747 11.573H208.214C208.827 11.573 209.166 11.7017 209.231 11.959L210.737 16.7048C210.813 16.947 210.971 17.5449 211.205 18.4986L211.363 19.195H211.446C211.634 18.2413 211.822 17.4087 212.018 16.7048L213.525 11.959C213.595 11.7017 213.934 11.573 214.542 11.573H214.911C215.612 11.573 215.966 11.7092 215.966 11.9817C215.958 12.0997 215.938 12.2165 215.905 12.3299L212.666 21.9501C212.571 22.2075 212.232 22.3361 211.649 22.3361H210.979C210.386 22.3462 210.039 22.2175 209.939 21.9501Z" fill="#505050"/>
<path d="M216.855 21.7609V15.0623C216.872 14.3915 216.832 13.7203 216.734 13.0565C216.677 12.8072 216.637 12.5543 216.613 12.2996C216.613 12.1104 216.832 11.959 217.284 11.8606C217.676 11.7636 218.078 11.7128 218.482 11.7092C218.583 11.7041 218.684 11.7294 218.771 11.7819C218.859 11.8345 218.928 11.912 218.971 12.0044C219.064 12.2003 219.135 12.406 219.182 12.6175L219.273 13.0338C219.642 12.5735 220.104 12.1969 220.629 11.9287C221.159 11.6506 221.748 11.5051 222.346 11.5049C224.403 11.5049 225.435 12.6024 225.435 14.8125V21.776C225.44 21.8684 225.418 21.9603 225.373 22.0407C225.328 22.1212 225.26 22.1869 225.179 22.2302C224.919 22.3381 224.638 22.3847 224.358 22.3664H223.966C223.25 22.3664 222.889 22.1696 222.889 21.776V15.138C222.916 14.9327 222.896 14.7239 222.83 14.5278C222.764 14.3316 222.654 14.1534 222.508 14.007C222.362 13.8605 222.185 13.7498 221.989 13.6834C221.794 13.6171 221.586 13.5968 221.382 13.6242C220.983 13.6253 220.595 13.7553 220.275 13.9951C219.936 14.2326 219.649 14.5364 219.431 14.8882V21.7533C219.431 22.1469 219.069 22.3437 218.354 22.3437H217.947C217.216 22.3513 216.855 22.1545 216.855 21.7609Z" fill="#505050"/>
<path d="M79.5445 64.753L77.9248 58.6978L76.3202 64.753C76.3109 64.8106 76.2799 64.8623 76.2336 64.8976C76.1873 64.9328 76.1293 64.9488 76.0716 64.9422H74.806C74.7495 64.9468 74.6934 64.9298 74.6488 64.8948C74.6041 64.8597 74.5742 64.8091 74.5649 64.753L72.5761 56.7677C72.5761 56.6466 72.5761 56.5936 72.6967 56.5936H73.8267C73.853 56.5893 73.8799 56.5905 73.9058 56.597C73.9316 56.6036 73.9559 56.6154 73.977 56.6317C73.9982 56.648 74.0158 56.6684 74.0288 56.6918C74.0418 56.7152 74.0499 56.741 74.0527 56.7677L75.5066 62.8229L77.1263 56.7677C77.1384 56.7237 77.1652 56.6854 77.2023 56.6592C77.2394 56.6329 77.2844 56.6204 77.3297 56.6238H78.535C78.5787 56.6194 78.6224 56.6317 78.6574 56.6584C78.6924 56.6851 78.7159 56.7242 78.7233 56.7677L80.3581 62.8229L81.7969 56.7677C81.8094 56.7143 81.8407 56.6673 81.885 56.6353C81.9293 56.6033 81.9837 56.5885 82.038 56.5936H83.1605C83.2735 56.5936 83.3111 56.6466 83.2735 56.7677L81.2847 64.753C81.2789 64.8079 81.2521 64.8584 81.2099 64.8937C81.1677 64.929 81.1135 64.9464 81.0587 64.9422H79.8006C79.7417 64.9509 79.6818 64.9359 79.6338 64.9005C79.5859 64.865 79.5538 64.812 79.5445 64.753Z" fill="#505050"/>
<path d="M87.9969 63.5191C88.0383 63.4959 88.0869 63.4893 88.133 63.5005C88.1791 63.5117 88.2192 63.54 88.2455 63.5797L88.6975 64.2155C88.7121 64.2345 88.7223 64.2566 88.7272 64.2801C88.7321 64.3036 88.7316 64.3279 88.7258 64.3513C88.72 64.3746 88.709 64.3963 88.6937 64.4147C88.6783 64.4331 88.659 64.4478 88.6372 64.4577C87.9768 64.8606 87.2176 65.0703 86.445 65.0632C86.0416 65.0712 85.6409 64.9946 85.2686 64.8382C84.8963 64.6818 84.5606 64.4491 84.2829 64.1549C83.9932 63.8677 83.7644 63.5244 83.6103 63.1458C83.4562 62.7673 83.3801 62.3613 83.3865 61.9523C83.3778 61.156 83.6683 60.3857 84.2001 59.7952C84.4588 59.4944 84.7811 59.2554 85.1434 59.0957C85.5057 58.9359 85.8989 58.8594 86.2943 58.8717C86.6964 58.8514 87.0976 58.9241 87.4673 59.0842C87.8369 59.2443 88.165 59.4875 88.4263 59.7952C88.9659 60.4487 89.2498 61.2776 89.2248 62.1264C89.2248 62.2627 89.1495 62.3308 89.0063 62.3308H84.6596C84.7163 62.7665 84.9277 63.1669 85.2547 63.4586C85.5966 63.7513 86.0336 63.9075 86.4827 63.8976C87.0117 63.9072 87.534 63.7767 87.9969 63.5191ZM86.2943 59.8936C85.8693 59.8955 85.4618 60.0644 85.1591 60.3643C84.8564 60.6642 84.6825 61.0712 84.6747 61.4982H87.9215C87.9117 61.0705 87.7362 60.6635 87.4323 60.3638C87.1284 60.0641 86.7202 59.8954 86.2943 59.8936Z" fill="#505050"/>
<path d="M90.2418 64.7681V56.147C90.2418 56.0258 90.2946 55.9653 90.4151 55.9653H91.402C91.4266 55.9614 91.4518 55.9634 91.4755 55.9712C91.4992 55.979 91.5207 55.9922 91.5383 56.0099C91.556 56.0276 91.5692 56.0493 91.5769 56.0731C91.5846 56.0969 91.5866 56.1222 91.5828 56.147V59.9315C91.7964 59.5764 92.1001 59.2849 92.4628 59.0867C92.8255 58.8885 93.2342 58.7908 93.6469 58.8037C94.0221 58.793 94.3946 58.8694 94.7357 59.0269C95.0767 59.1844 95.3769 59.4189 95.6131 59.712C96.1254 60.328 96.3936 61.1122 96.3664 61.9145C96.3924 62.7213 96.1245 63.5098 95.6131 64.1323C95.3807 64.4333 95.0825 64.6766 94.7416 64.8433C94.4006 65.01 94.0261 65.0956 93.6469 65.0935C93.234 65.1025 92.826 65.0023 92.4638 64.8031C92.1015 64.6038 91.7977 64.3125 91.5828 63.9582V64.7983C91.5828 64.9194 91.5225 64.9724 91.402 64.9724H90.4C90.2946 64.9421 90.2418 64.8892 90.2418 64.7681ZM92.0574 63.2543C92.2172 63.4232 92.4102 63.5568 92.6242 63.6467C92.8382 63.7366 93.0684 63.7808 93.3004 63.7765C93.5301 63.7815 93.7584 63.7376 93.97 63.6476C94.1817 63.5575 94.3719 63.4235 94.5283 63.2543C94.8475 62.8995 95.0242 62.4382 95.0242 61.96C95.0242 61.4817 94.8475 61.0204 94.5283 60.6657C94.3722 60.496 94.182 60.3617 93.9703 60.2717C93.7586 60.1816 93.5302 60.1379 93.3004 60.1434C93.0684 60.1391 92.8382 60.1833 92.6242 60.2732C92.4102 60.3631 92.2172 60.4968 92.0574 60.6657C91.7381 61.0204 91.5614 61.4817 91.5614 61.96C91.5614 62.4382 91.7381 62.8995 92.0574 63.2543Z" fill="#505050"/>
<path d="M99.1236 64.0111C99.6961 64.0111 100.088 63.7159 100.088 63.2542C100.088 62.1642 97.0746 62.4367 97.0746 60.5142C97.0737 60.2798 97.127 60.0484 97.2302 59.8383C97.3335 59.6281 97.4839 59.4449 97.6697 59.3032C98.0998 58.9684 98.6325 58.7944 99.1763 58.8112C99.8756 58.7958 100.556 59.0381 101.09 59.4924C101.109 59.5073 101.124 59.5262 101.134 59.5479C101.145 59.5695 101.15 59.5932 101.15 59.6173C101.15 59.6413 101.145 59.665 101.134 59.6867C101.124 59.7083 101.109 59.7273 101.09 59.7422L100.653 60.2114C100.614 60.2441 100.564 60.2619 100.514 60.2619C100.463 60.2619 100.413 60.2441 100.374 60.2114C100.027 59.9744 99.6187 59.843 99.1989 59.833C98.7093 59.833 98.3025 60.0828 98.3025 60.4764C98.3025 60.8699 98.7771 61.0592 99.3873 61.2333C100.254 61.5133 101.369 61.9523 101.369 63.1482C101.372 63.4001 101.317 63.6494 101.209 63.8765C101.1 64.1037 100.941 64.3025 100.743 64.4577C100.284 64.8219 99.7085 65.0073 99.1236 64.9799C98.719 64.9906 98.3165 64.9168 97.9417 64.763C97.5669 64.6093 97.228 64.379 96.9465 64.0868C96.9258 64.069 96.9092 64.047 96.8978 64.0221C96.8864 63.9973 96.8806 63.9703 96.8806 63.943C96.8806 63.9156 96.8864 63.8886 96.8978 63.8638C96.9092 63.839 96.9258 63.8169 96.9465 63.7991L97.3608 63.3526C97.3791 63.3329 97.4013 63.3171 97.4259 63.3064C97.4506 63.2957 97.4771 63.2901 97.5039 63.2901C97.5308 63.2901 97.5574 63.2957 97.582 63.3064C97.6066 63.3171 97.6288 63.3329 97.6471 63.3526C98.0417 63.7474 98.5675 63.9818 99.1236 64.0111Z" fill="#505050"/>
<path d="M103.116 56.4799C103.277 56.4769 103.435 56.5219 103.571 56.6093C103.706 56.6966 103.813 56.8223 103.877 56.9705C103.941 57.1187 103.96 57.2827 103.932 57.4418C103.903 57.6009 103.829 57.748 103.717 57.8644C103.605 57.9808 103.462 58.0614 103.305 58.0958C103.147 58.1303 102.984 58.1172 102.834 58.0581C102.684 57.999 102.555 57.8967 102.463 57.7639C102.371 57.6312 102.321 57.4741 102.318 57.3125C102.316 57.2051 102.335 57.0984 102.374 56.9985C102.413 56.8985 102.471 56.8073 102.545 56.73C102.619 56.6526 102.708 56.5908 102.806 56.5479C102.904 56.5049 103.009 56.4818 103.116 56.4799ZM102.453 64.7679V59.1366C102.451 59.1124 102.454 59.088 102.462 59.0652C102.47 59.0424 102.484 59.0217 102.501 59.0049C102.519 58.9881 102.54 58.9756 102.563 58.9682C102.586 58.9608 102.61 58.9589 102.634 58.9625H103.621C103.645 58.9589 103.669 58.9608 103.692 58.9682C103.715 58.9756 103.736 58.9881 103.754 59.0049C103.771 59.0217 103.785 59.0424 103.793 59.0652C103.801 59.088 103.804 59.1124 103.802 59.1366V64.7679C103.802 64.889 103.742 64.942 103.621 64.942H102.634C102.521 64.942 102.453 64.889 102.453 64.7679Z" fill="#505050"/>
<path d="M108.924 64.6924C108.501 64.939 108.02 65.0671 107.531 65.0633C107.295 65.0905 107.056 65.0642 106.831 64.9864C106.606 64.9085 106.402 64.7809 106.233 64.6132C106.064 64.4454 105.934 64.2417 105.854 64.017C105.773 63.7923 105.744 63.5524 105.768 63.3148V60.204H105.165C105.142 60.2063 105.118 60.2034 105.096 60.1955C105.074 60.1876 105.054 60.1749 105.038 60.1582C105.021 60.1415 105.008 60.1214 105 60.0992C104.993 60.077 104.99 60.0533 104.992 60.0299V59.1367C104.99 59.1133 104.993 59.0896 105 59.0674C105.008 59.0452 105.021 59.0251 105.038 59.0084C105.054 58.9917 105.074 58.979 105.096 58.9711C105.118 58.9632 105.142 58.9603 105.165 58.9626H105.768V57.3656C105.764 57.3418 105.766 57.3175 105.773 57.2946C105.781 57.2716 105.793 57.2508 105.81 57.2338C105.827 57.2168 105.848 57.2041 105.871 57.1967C105.893 57.1893 105.918 57.1876 105.941 57.1915H106.928C106.952 57.1879 106.976 57.1898 107 57.1972C107.023 57.2045 107.044 57.2171 107.061 57.2339C107.079 57.2507 107.092 57.2713 107.1 57.2942C107.109 57.317 107.112 57.3414 107.109 57.3656V58.9626H108.555C108.579 58.9603 108.602 58.9632 108.624 58.9711C108.646 58.979 108.666 58.9917 108.683 59.0084C108.7 59.0251 108.712 59.0452 108.72 59.0674C108.728 59.0896 108.731 59.1133 108.729 59.1367V60.0299C108.731 60.0533 108.728 60.077 108.72 60.0992C108.712 60.1214 108.7 60.1415 108.683 60.1582C108.666 60.1749 108.646 60.1876 108.624 60.1955C108.602 60.2034 108.579 60.2063 108.555 60.204H107.109V63.1483C107.109 63.5722 107.327 63.769 107.757 63.769C107.993 63.7625 108.225 63.703 108.435 63.5949C108.518 63.5949 108.578 63.5949 108.608 63.6403L109.007 64.4653C109.017 64.4856 109.023 64.5077 109.024 64.5303C109.026 64.5529 109.022 64.5755 109.015 64.5968C109.007 64.618 108.995 64.6375 108.979 64.6539C108.964 64.6703 108.945 64.6834 108.924 64.6924Z" fill="#505050"/>
<path d="M113.994 63.5192C114.037 63.4955 114.087 63.4886 114.134 63.4998C114.181 63.511 114.223 63.5395 114.251 63.5797L114.703 64.2155C114.717 64.2345 114.727 64.2566 114.732 64.2802C114.737 64.3037 114.737 64.328 114.731 64.3513C114.725 64.3746 114.714 64.3963 114.699 64.4148C114.683 64.4332 114.664 64.4479 114.642 64.4577C113.982 64.8606 113.223 65.0703 112.45 65.0633C112.046 65.0714 111.644 64.9949 111.27 64.8385C110.897 64.6822 110.56 64.4494 110.28 64.155C109.991 63.8677 109.762 63.5245 109.608 63.1459C109.454 62.7673 109.378 62.3613 109.384 61.9524C109.379 61.1568 109.669 60.3877 110.198 59.7952C110.456 59.4945 110.779 59.2555 111.141 59.0958C111.503 58.936 111.896 58.8595 112.292 58.8718C112.694 58.8498 113.096 58.9217 113.466 59.0819C113.836 59.2421 114.164 59.4863 114.424 59.7952C114.981 60.4473 115.278 61.2827 115.26 62.1416C115.26 62.2779 115.192 62.346 115.049 62.346H110.665C110.718 62.7827 110.93 63.1843 111.26 63.4738C111.601 63.7678 112.038 63.9242 112.488 63.9128C113.016 63.9164 113.535 63.7807 113.994 63.5192ZM112.292 59.8936C111.867 59.8974 111.461 60.067 111.159 60.3665C110.856 60.666 110.682 61.0718 110.672 61.4983H113.927C113.913 61.0705 113.735 60.6646 113.431 60.3655C113.126 60.0664 112.718 59.8973 112.292 59.8936Z" fill="#505050"/>
<path d="M121.008 64.0111C121.573 64.0111 121.972 63.7159 121.972 63.2542C121.972 62.1642 118.959 62.4367 118.959 60.5142C118.958 60.2798 119.011 60.0484 119.115 59.8383C119.218 59.6281 119.368 59.4449 119.554 59.3032C119.984 58.9684 120.517 58.7944 121.061 58.8112C121.76 58.7958 122.441 59.0381 122.974 59.4924C122.993 59.5073 123.008 59.5262 123.019 59.5479C123.029 59.5695 123.035 59.5932 123.035 59.6173C123.035 59.6413 123.029 59.665 123.019 59.6867C123.008 59.7083 122.993 59.7273 122.974 59.7422L122.537 60.2114C122.498 60.2441 122.449 60.2619 122.398 60.2619C122.347 60.2619 122.298 60.2441 122.258 60.2114C121.911 59.9744 121.503 59.843 121.083 59.833C120.594 59.833 120.187 60.0828 120.187 60.4764C120.187 60.8699 120.661 61.0592 121.272 61.2333C122.145 61.5133 123.253 61.9523 123.253 63.1482C123.256 63.4001 123.201 63.6494 123.093 63.8765C122.984 64.1037 122.825 64.3025 122.628 64.4577C122.168 64.8219 121.593 65.0073 121.008 64.9799C120.603 64.9906 120.201 64.9168 119.826 64.763C119.451 64.6093 119.112 64.379 118.831 64.0868C118.81 64.069 118.794 64.047 118.782 64.0221C118.771 63.9973 118.765 63.9703 118.765 63.943C118.765 63.9156 118.771 63.8886 118.782 63.8638C118.794 63.839 118.81 63.8169 118.831 63.7991L119.245 63.3526C119.263 63.3329 119.286 63.3171 119.31 63.3064C119.335 63.2957 119.361 63.2901 119.388 63.2901C119.415 63.2901 119.442 63.2957 119.466 63.3064C119.491 63.3171 119.513 63.3329 119.531 63.3526C119.929 63.7433 120.453 63.977 121.008 64.0111Z" fill="#505050"/>
<path d="M123.72 61.9524C123.715 61.5449 123.79 61.1404 123.941 60.7624C124.092 60.3843 124.317 60.0401 124.601 59.7498C124.886 59.4624 125.224 59.2342 125.596 59.0786C125.968 58.9229 126.368 58.8428 126.771 58.8428C127.174 58.8428 127.574 58.9229 127.946 59.0786C128.318 59.2342 128.656 59.4624 128.941 59.7498C129.507 60.3419 129.823 61.1312 129.823 61.9524C129.823 62.7735 129.507 63.5628 128.941 64.155C128.656 64.4424 128.318 64.6705 127.946 64.8262C127.574 64.9818 127.174 65.062 126.771 65.062C126.368 65.062 125.968 64.9818 125.596 64.8262C125.224 64.6705 124.886 64.4424 124.601 64.155C124.317 63.8646 124.092 63.5205 123.941 63.1424C123.79 62.7643 123.715 62.3598 123.72 61.9524ZM127.366 56.3135L128.466 57.5245C128.488 57.5457 128.505 57.571 128.517 57.5989C128.528 57.6269 128.534 57.6569 128.534 57.6872C128.534 57.7176 128.528 57.7476 128.517 57.7756C128.505 57.8035 128.488 57.8288 128.466 57.85L128.217 58.1452C128.2 58.1733 128.175 58.1965 128.146 58.2126C128.117 58.2286 128.085 58.2371 128.052 58.2371C128.019 58.2371 127.986 58.2286 127.957 58.2126C127.928 58.1965 127.904 58.1733 127.886 58.1452L126.786 57.1385L125.701 58.1452C125.682 58.1733 125.656 58.1962 125.626 58.2121C125.596 58.2279 125.562 58.2362 125.528 58.2362C125.494 58.2362 125.46 58.2279 125.43 58.2121C125.4 58.1962 125.374 58.1733 125.355 58.1452L125.106 57.8575C125.081 57.8377 125.061 57.8124 125.047 57.7836C125.033 57.7547 125.026 57.7231 125.026 57.691C125.026 57.659 125.033 57.6273 125.047 57.5985C125.061 57.5696 125.081 57.5443 125.106 57.5245L126.191 56.3135C126.28 56.2142 126.405 56.1544 126.537 56.1469H127.05C127.111 56.1512 127.171 56.1682 127.225 56.1969C127.28 56.2255 127.328 56.2652 127.366 56.3135ZM128.014 63.2467C128.333 62.8919 128.51 62.4306 128.51 61.9524C128.51 61.4741 128.333 61.0129 128.014 60.6581C127.854 60.4892 127.661 60.3555 127.447 60.2656C127.233 60.1757 127.003 60.1315 126.771 60.1358C126.54 60.1307 126.311 60.1745 126.098 60.2645C125.885 60.3545 125.693 60.4886 125.535 60.6581C125.209 61.0081 125.033 61.473 125.046 61.9524C125.039 62.1904 125.08 62.4274 125.165 62.6495C125.251 62.8717 125.379 63.0747 125.543 63.2467C125.7 63.4152 125.89 63.5487 126.102 63.6387C126.313 63.7286 126.541 63.773 126.771 63.7689C127.003 63.7733 127.233 63.729 127.447 63.6391C127.661 63.5492 127.854 63.4156 128.014 63.2467ZM128.473 55.9426L129.762 54.6559C129.777 54.6383 129.795 54.6242 129.816 54.6145C129.837 54.6049 129.859 54.5999 129.882 54.5999C129.905 54.5999 129.928 54.6049 129.949 54.6145C129.969 54.6242 129.988 54.6383 130.003 54.6559L130.598 55.1403C130.617 55.1507 130.632 55.1661 130.643 55.1847C130.654 55.2034 130.66 55.2246 130.66 55.2462C130.66 55.2679 130.654 55.2891 130.643 55.3077C130.632 55.3264 130.617 55.3417 130.598 55.3522L129.091 56.5708C129.021 56.6314 128.946 56.6314 128.865 56.5708L128.489 56.1999C128.461 56.1923 128.437 56.1764 128.419 56.1543C128.402 56.1322 128.391 56.105 128.389 56.0767C128.388 56.0483 128.395 56.0201 128.41 55.9961C128.425 55.9721 128.447 55.9533 128.473 55.9426Z" fill="#505050"/>
<path d="M135.6 56.5708C135.721 56.5708 135.781 56.6238 135.781 56.7449V64.768C135.781 64.8891 135.721 64.9421 135.6 64.9421H134.598C134.478 64.9421 134.425 64.8891 134.425 64.768V58.0619L133.317 58.3495C133.299 58.3552 133.279 58.3569 133.259 58.3546C133.24 58.3523 133.221 58.346 133.204 58.336C133.187 58.3261 133.172 58.3127 133.161 58.2968C133.149 58.2809 133.141 58.2628 133.137 58.2436L133.001 57.199C132.997 57.177 132.997 57.1543 133.002 57.1324C133.007 57.1105 133.017 57.09 133.03 57.0721C133.044 57.0542 133.061 57.0394 133.081 57.0287C133.1 57.018 133.122 57.0115 133.144 57.0098L135.404 56.5708H135.6Z" fill="#505050"/>
<path d="M144.165 58.9627H145.205C145.333 58.9627 145.371 59.0232 145.326 59.1367L143.299 64.7302C143.254 64.8741 143.179 64.9422 143.073 64.9422H141.988C141.883 64.9422 141.807 64.8741 141.747 64.7302L139.736 59.1367C139.676 59.0232 139.736 58.9627 139.841 58.9627H140.873C140.922 58.9621 140.97 58.9794 141.007 59.0114C141.045 59.0434 141.069 59.0879 141.077 59.1367L142.508 63.1029L143.939 59.1367C144.015 59.0383 144.083 58.9627 144.165 58.9627Z" fill="#505050"/>
<path d="M150.124 63.5192C150.145 63.5068 150.167 63.4985 150.191 63.4948C150.214 63.4911 150.238 63.4921 150.261 63.4977C150.284 63.5034 150.306 63.5135 150.325 63.5276C150.344 63.5417 150.36 63.5594 150.373 63.5798L150.832 64.2156C150.846 64.235 150.855 64.2571 150.859 64.2803C150.863 64.3036 150.862 64.3274 150.857 64.3503C150.851 64.3733 150.84 64.3947 150.826 64.4132C150.811 64.4317 150.793 64.4469 150.772 64.4578C150.112 64.8607 149.352 65.0704 148.58 65.0633C148.175 65.072 147.773 64.9956 147.4 64.8392C147.026 64.6828 146.689 64.4498 146.41 64.155C146.121 63.8678 145.892 63.5245 145.738 63.1459C145.584 62.7674 145.507 62.3614 145.514 61.9525C145.509 61.1568 145.799 60.3878 146.327 59.7953C146.582 59.491 146.9 59.2475 147.26 59.0825C147.62 58.9176 148.011 58.8353 148.407 58.8416C148.814 58.8208 149.22 58.8962 149.593 59.0618C149.966 59.2275 150.295 59.4787 150.554 59.7953C151.093 60.4488 151.377 61.2777 151.352 62.1265C151.352 62.2628 151.284 62.3309 151.141 62.3309H146.795C146.844 62.7688 147.057 63.1715 147.39 63.4587C147.728 63.7522 148.163 63.9087 148.61 63.8977C149.139 63.9073 149.661 63.7768 150.124 63.5192ZM149.032 56.3135L150.124 57.5246C150.166 57.5683 150.19 57.6266 150.19 57.6873C150.19 57.748 150.166 57.8063 150.124 57.85L149.876 58.1452C149.778 58.2663 149.657 58.2663 149.537 58.1452L148.407 57.1386L147.322 58.1452C147.302 58.1733 147.277 58.1963 147.246 58.2122C147.216 58.228 147.183 58.2363 147.149 58.2363C147.115 58.2363 147.081 58.228 147.051 58.2122C147.021 58.1963 146.995 58.1733 146.975 58.1452L146.727 57.8576C146.702 57.8378 146.681 57.8125 146.667 57.7837C146.654 57.7548 146.646 57.7232 146.646 57.6911C146.646 57.659 146.654 57.6274 146.667 57.5985C146.681 57.5697 146.702 57.5444 146.727 57.5246L147.812 56.3135C147.898 56.2154 148.02 56.1556 148.151 56.147H148.67C148.739 56.1446 148.808 56.1585 148.871 56.1874C148.933 56.2163 148.989 56.2595 149.032 56.3135ZM148.407 59.8937C147.982 59.8975 147.576 60.0671 147.274 60.3666C146.971 60.666 146.797 61.0719 146.787 61.4983H150.041C150.028 61.0705 149.85 60.6646 149.545 60.3655C149.241 60.0665 148.833 59.8974 148.407 59.8937ZM150.169 56.1092L148.663 54.8981C148.644 54.8857 148.629 54.8688 148.618 54.849C148.608 54.8292 148.602 54.8071 148.602 54.7846C148.602 54.7621 148.608 54.74 148.618 54.7202C148.629 54.7004 148.644 54.6835 148.663 54.6711L149.258 54.1942C149.271 54.1769 149.288 54.1629 149.308 54.1533C149.328 54.1437 149.349 54.1387 149.371 54.1387C149.393 54.1387 149.414 54.1437 149.434 54.1533C149.453 54.1629 149.471 54.1769 149.484 54.1942L150.772 55.4885C150.855 55.5718 150.863 55.6399 150.772 55.7004L150.38 56.0713C150.359 56.1024 150.329 56.1258 150.294 56.1381C150.258 56.1503 150.22 56.1508 150.185 56.1394L150.169 56.1092Z" fill="#505050"/>
<path d="M155.405 64.7681V56.147C155.401 56.1222 155.403 56.0969 155.411 56.0731C155.419 56.0493 155.432 56.0276 155.45 56.0099C155.467 55.9922 155.489 55.979 155.512 55.9712C155.536 55.9634 155.561 55.9614 155.586 55.9653H156.573C156.597 55.9614 156.623 55.9634 156.646 55.9712C156.67 55.979 156.692 55.9922 156.709 56.0099C156.727 56.0276 156.74 56.0493 156.748 56.0731C156.755 56.0969 156.757 56.1222 156.754 56.147V59.9315C156.965 59.5765 157.268 59.2848 157.629 59.0865C157.991 58.8883 158.398 58.7906 158.81 58.8037C159.185 58.793 159.558 58.8694 159.899 59.0269C160.24 59.1844 160.54 59.4189 160.776 59.712C161.289 60.328 161.557 61.1122 161.53 61.9145C161.556 62.7213 161.288 63.5098 160.776 64.1323C160.544 64.4333 160.246 64.6766 159.905 64.8433C159.564 65.01 159.189 65.0956 158.81 65.0935C158.398 65.1019 157.992 65.0014 157.631 64.8022C157.27 64.6029 156.967 64.3119 156.754 63.9582V64.7983C156.754 64.9194 156.693 64.9724 156.573 64.9724H155.586C155.465 64.9421 155.405 64.8892 155.405 64.7681ZM157.228 63.2543C157.387 63.4229 157.578 63.5565 157.791 63.6465C158.004 63.7364 158.233 63.7807 158.464 63.7765C158.693 63.7815 158.922 63.7376 159.133 63.6476C159.345 63.5575 159.535 63.4235 159.692 63.2543C160.016 62.9019 160.196 62.4397 160.196 61.96C160.196 61.4802 160.016 61.0181 159.692 60.6657C159.536 60.4952 159.346 60.3604 159.134 60.2703C158.922 60.1802 158.694 60.1369 158.464 60.1434C158.233 60.1392 158.004 60.1835 157.791 60.2734C157.578 60.3634 157.387 60.497 157.228 60.6657C156.909 61.0204 156.732 61.4817 156.732 61.96C156.732 62.4382 156.909 62.8995 157.228 63.2543Z" fill="#505050"/>
<path d="M168.182 59.1367V64.7681C168.182 64.8892 168.121 64.9421 168.001 64.9421H167.014C166.893 64.9421 166.833 64.8892 166.833 64.7681V63.9279C166.613 64.2776 166.308 64.5653 165.947 64.7639C165.586 64.9625 165.181 65.0655 164.769 65.0632C164.395 65.0735 164.024 64.9984 163.684 64.8437C163.343 64.689 163.042 64.4587 162.803 64.1701C162.291 63.5477 162.024 62.7591 162.05 61.9524C162.022 61.1501 162.291 60.3659 162.803 59.7498C163.039 59.4567 163.339 59.2223 163.68 59.0648C164.021 58.9072 164.394 58.8308 164.769 58.8415C165.18 58.8377 165.585 58.9393 165.947 59.1366C166.308 59.3339 166.613 59.6205 166.833 59.9693V59.1367C166.831 59.1125 166.834 59.0881 166.842 59.0653C166.85 59.0425 166.864 59.0219 166.881 59.005C166.899 58.9882 166.92 58.9757 166.943 58.9683C166.966 58.961 166.99 58.959 167.014 58.9626H167.993C168.018 58.9577 168.043 58.9586 168.067 58.9654C168.091 58.9721 168.113 58.9845 168.132 59.0015C168.15 59.0185 168.164 59.0396 168.173 59.0631C168.181 59.0866 168.185 59.1118 168.182 59.1367ZM166.359 60.6505C166.199 60.4816 166.006 60.348 165.792 60.2581C165.578 60.1681 165.348 60.1239 165.116 60.1283C164.885 60.1231 164.655 60.167 164.442 60.257C164.23 60.347 164.038 60.4811 163.88 60.6505C163.554 61.0005 163.378 61.4655 163.39 61.9448C163.384 62.1829 163.425 62.4198 163.51 62.642C163.595 62.8641 163.724 63.0671 163.888 63.2391C164.045 63.4076 164.235 63.5411 164.447 63.6311C164.658 63.7211 164.886 63.7654 165.116 63.7614C165.348 63.7657 165.578 63.7215 165.792 63.6316C166.006 63.5417 166.199 63.408 166.359 63.2391C166.678 62.8843 166.855 62.4231 166.855 61.9448C166.855 61.4665 166.678 61.0053 166.359 60.6505ZM165.937 56.3059L167.037 57.5169C167.058 57.5381 167.075 57.5634 167.087 57.5914C167.099 57.6193 167.105 57.6493 167.105 57.6797C167.105 57.71 167.099 57.74 167.087 57.768C167.075 57.7959 167.058 57.8212 167.037 57.8424L166.788 58.1376C166.77 58.1657 166.746 58.1889 166.717 58.205C166.688 58.2211 166.655 58.2295 166.622 58.2295C166.589 58.2295 166.557 58.2211 166.528 58.205C166.499 58.1889 166.474 58.1657 166.457 58.1376L165.357 57.1309L164.227 58.1452C164.207 58.1733 164.181 58.1962 164.151 58.2121C164.121 58.2279 164.087 58.2362 164.053 58.2362C164.019 58.2362 163.986 58.2279 163.956 58.2121C163.925 58.1962 163.9 58.1733 163.88 58.1452L163.632 57.8575C163.606 57.8377 163.586 57.8124 163.572 57.7836C163.558 57.7547 163.551 57.7231 163.551 57.691C163.551 57.659 163.558 57.6273 163.572 57.5985C163.586 57.5696 163.606 57.5443 163.632 57.5245L164.716 56.3135C164.806 56.2149 164.93 56.1552 165.063 56.1469H165.575C165.644 56.1433 165.713 56.1566 165.776 56.1856C165.839 56.2146 165.894 56.2585 165.937 56.3135V56.3059ZM167.044 55.935L168.332 54.6483C168.347 54.6307 168.366 54.6166 168.386 54.607C168.407 54.5973 168.43 54.5923 168.453 54.5923C168.476 54.5923 168.498 54.5973 168.519 54.607C168.54 54.6166 168.559 54.6307 168.573 54.6483L169.169 55.1327C169.187 55.1432 169.203 55.1585 169.214 55.1772C169.225 55.1958 169.231 55.217 169.231 55.2387C169.231 55.2603 169.225 55.2815 169.214 55.3002C169.203 55.3188 169.187 55.3342 169.169 55.3446L167.662 56.5632C167.592 56.6238 167.516 56.6238 167.436 56.5632L167.059 56.1924C167.034 56.1833 167.013 56.1672 166.997 56.1458C166.981 56.1245 166.971 56.099 166.97 56.0725C166.968 56.0459 166.974 56.0194 166.988 55.9964C167.001 55.9733 167.02 55.9546 167.044 55.9426V55.935Z" fill="#505050"/>
<path d="M173.161 64.6924C172.739 64.951 172.255 65.0896 171.76 65.0935C171.524 65.1208 171.285 65.0945 171.06 65.0166C170.835 64.9387 170.631 64.8112 170.462 64.6435C170.293 64.4757 170.163 64.272 170.083 64.0473C170.002 63.8226 169.973 63.5827 169.997 63.3451V60.204H169.402C169.378 60.2076 169.354 60.2056 169.331 60.1983C169.308 60.1909 169.287 60.1783 169.269 60.1615C169.252 60.1447 169.238 60.1241 169.23 60.1013C169.222 60.0785 169.219 60.054 169.221 60.0299V59.1367C169.219 59.1126 169.222 59.0881 169.23 59.0653C169.238 59.0425 169.252 59.0219 169.269 59.0051C169.287 58.9883 169.308 58.9757 169.331 58.9683C169.354 58.961 169.378 58.959 169.402 58.9626H169.997V57.3656C169.995 57.3421 169.998 57.3185 170.006 57.2963C170.013 57.2741 170.026 57.2539 170.043 57.2372C170.059 57.2206 170.079 57.2078 170.101 57.1999C170.124 57.192 170.147 57.1891 170.17 57.1915H171.165C171.189 57.1876 171.213 57.1893 171.236 57.1967C171.258 57.2041 171.279 57.2168 171.296 57.2338C171.313 57.2508 171.326 57.2716 171.333 57.2946C171.34 57.3175 171.342 57.3418 171.338 57.3656V58.9626H172.785C172.808 58.959 172.833 58.961 172.856 58.9683C172.879 58.9757 172.9 58.9883 172.918 59.0051C172.935 59.0219 172.948 59.0425 172.957 59.0653C172.965 59.0881 172.968 59.1126 172.965 59.1367V60.0299C172.968 60.054 172.965 60.0785 172.957 60.1013C172.948 60.1241 172.935 60.1447 172.918 60.1615C172.9 60.1783 172.879 60.1909 172.856 60.1983C172.833 60.2056 172.808 60.2076 172.785 60.204H171.338V63.1483C171.338 63.5722 171.557 63.769 171.986 63.769C172.222 63.7633 172.454 63.7038 172.664 63.5949C172.744 63.5545 172.805 63.5697 172.845 63.6403L173.237 64.4653C173.247 64.4851 173.253 64.5068 173.255 64.5291C173.257 64.5513 173.254 64.5737 173.247 64.5949C173.24 64.6161 173.229 64.6356 173.214 64.6524C173.199 64.6691 173.181 64.6827 173.161 64.6924Z" fill="#505050"/>
<path d="M182.789 64.9421H181.802C181.681 64.9421 181.621 64.8892 181.621 64.7681V63.9279C181.406 64.2822 181.102 64.5735 180.74 64.7728C180.378 64.972 179.97 65.0722 179.557 65.0632C179.183 65.0735 178.812 64.9984 178.472 64.8437C178.131 64.689 177.83 64.4587 177.591 64.1701C177.079 63.5477 176.811 62.7591 176.837 61.9524C176.81 61.1501 177.078 60.3659 177.591 59.7498C177.827 59.4567 178.127 59.2223 178.468 59.0648C178.809 58.9072 179.182 58.8308 179.557 58.8415C179.97 58.8287 180.378 58.9264 180.741 59.1245C181.104 59.3227 181.408 59.6143 181.621 59.9693V58.3647H180.461C180.356 58.3647 180.295 58.3041 180.295 58.1679V57.5624C180.295 57.4413 180.356 57.3807 180.461 57.3807H181.621V56.147C181.617 56.1222 181.619 56.0969 181.627 56.0731C181.635 56.0493 181.648 56.0276 181.666 56.0099C181.683 55.9922 181.705 55.979 181.728 55.9712C181.752 55.9634 181.777 55.9614 181.802 55.9653H182.789C182.813 55.9614 182.839 55.9634 182.862 55.9712C182.886 55.979 182.908 55.9922 182.925 56.0099C182.943 56.0276 182.956 56.0493 182.964 56.0731C182.971 56.0969 182.973 56.1222 182.97 56.147V57.3807H183.655C183.761 57.3807 183.821 57.4413 183.821 57.5624V58.183C183.821 58.3041 183.761 58.3647 183.655 58.3647H182.97V64.7681C182.97 64.8892 182.909 64.9421 182.789 64.9421ZM178.676 63.2467C178.832 63.4159 179.022 63.55 179.234 63.64C179.446 63.73 179.674 63.774 179.904 63.7689C180.135 63.7733 180.366 63.7291 180.58 63.6391C180.794 63.5492 180.987 63.4156 181.147 63.2467C181.466 62.8919 181.642 62.4307 181.642 61.9524C181.642 61.4741 181.466 61.0129 181.147 60.6581C180.987 60.4892 180.794 60.3555 180.58 60.2656C180.366 60.1757 180.135 60.1315 179.904 60.1358C179.672 60.1302 179.443 60.1754 179.23 60.2682C179.018 60.3611 178.829 60.4993 178.676 60.6732C178.356 61.0248 178.179 61.4837 178.179 61.96C178.179 62.4362 178.356 62.8952 178.676 63.2467Z" fill="#505050"/>
<path d="M183.979 61.9524C183.974 61.5449 184.049 61.1405 184.2 60.7624C184.351 60.3843 184.576 60.0401 184.86 59.7498C185.145 59.4624 185.483 59.2343 185.855 59.0786C186.227 58.9229 186.627 58.8428 187.03 58.8428C187.433 58.8428 187.833 58.9229 188.205 59.0786C188.577 59.2343 188.915 59.4624 189.2 59.7498C189.766 60.3419 190.082 61.1312 190.082 61.9524C190.082 62.7736 189.766 63.5629 189.2 64.155C188.915 64.4424 188.577 64.6705 188.205 64.8262C187.833 64.9819 187.433 65.062 187.03 65.062C186.627 65.062 186.227 64.9819 185.855 64.8262C185.483 64.6705 185.145 64.4424 184.86 64.155C184.576 63.8647 184.351 63.5205 184.2 63.1424C184.049 62.7643 183.974 62.3599 183.979 61.9524ZM187.625 56.3135L188.718 57.5245C188.74 57.5451 188.758 57.5702 188.771 57.5983C188.783 57.6263 188.789 57.6566 188.789 57.6873C188.789 57.7179 188.783 57.7483 188.771 57.7763C188.758 57.8043 188.74 57.8294 188.718 57.85L188.469 58.1452C188.371 58.2663 188.25 58.2663 188.13 58.1452L187.038 57.1385L185.953 58.1452C185.933 58.1733 185.907 58.1963 185.877 58.2121C185.847 58.228 185.814 58.2363 185.78 58.2363C185.746 58.2363 185.712 58.228 185.682 58.2121C185.652 58.1963 185.626 58.1733 185.606 58.1452L185.358 57.8576C185.333 57.8377 185.312 57.8124 185.298 57.7836C185.284 57.7548 185.277 57.7231 185.277 57.6911C185.277 57.659 185.284 57.6273 185.298 57.5985C185.312 57.5697 185.333 57.5444 185.358 57.5245L186.442 56.3135C186.532 56.2143 186.656 56.1544 186.789 56.147H187.301C187.364 56.1502 187.425 56.1667 187.481 56.1954C187.537 56.2241 187.586 56.2643 187.625 56.3135ZM188.266 63.2467C188.59 62.8943 188.77 62.4322 188.77 61.9524C188.77 61.4726 188.59 61.0105 188.266 60.6581C188.108 60.4887 187.916 60.3546 187.703 60.2646C187.49 60.1746 187.261 60.1307 187.03 60.1358C186.798 60.1315 186.568 60.1757 186.354 60.2656C186.14 60.3556 185.947 60.4892 185.787 60.6581C185.466 61.011 185.294 61.4747 185.305 61.9524C185.299 62.1905 185.339 62.4274 185.425 62.6496C185.51 62.8717 185.638 63.0747 185.802 63.2467C185.962 63.4122 186.154 63.5437 186.365 63.6336C186.577 63.7234 186.804 63.7697 187.034 63.7697C187.264 63.7697 187.491 63.7234 187.702 63.6336C187.914 63.5437 188.105 63.4122 188.266 63.2467ZM187.015 66.1078C187.222 66.1078 187.42 66.1903 187.566 66.3372C187.713 66.4842 187.795 66.6834 187.795 66.8912C187.795 67.099 187.713 67.2982 187.566 67.4451C187.42 67.592 187.222 67.6746 187.015 67.6746C186.808 67.6746 186.61 67.592 186.464 67.4451C186.317 67.2982 186.235 67.099 186.235 66.8912C186.235 66.6834 186.317 66.4842 186.464 66.3372C186.61 66.1903 186.808 66.1078 187.015 66.1078Z" fill="#505050"/>
<path d="M195.513 64.9422C195.392 64.9422 195.332 64.8892 195.332 64.7681V61.8313C195.332 60.7944 194.872 60.1359 193.953 60.1359C193.749 60.1349 193.548 60.1792 193.363 60.2656C193.178 60.3519 193.014 60.4782 192.883 60.6354C192.594 60.9384 192.435 61.3433 192.439 61.7632V64.7908C192.439 64.9119 192.379 64.9649 192.258 64.9649H191.271C191.151 64.9649 191.091 64.9119 191.091 64.7908V59.1367C191.088 59.1126 191.091 59.0882 191.099 59.0653C191.108 59.0425 191.121 59.0219 191.138 59.0051C191.156 58.9883 191.177 58.9757 191.2 58.9684C191.223 58.961 191.247 58.9591 191.271 58.9627H192.258C192.282 58.9591 192.307 58.961 192.33 58.9684C192.353 58.9757 192.374 58.9883 192.391 59.0051C192.409 59.0219 192.422 59.0425 192.43 59.0653C192.439 59.0882 192.442 59.1126 192.439 59.1367V60.0148C192.638 59.6652 192.924 59.3735 193.268 59.1679C193.613 58.9623 194.005 58.8499 194.405 58.8416C195.912 58.8416 196.665 59.8558 196.665 61.5815V64.7681C196.665 64.8892 196.605 64.9422 196.484 64.9422H195.513Z" fill="#505050"/>
<path d="M202.805 67.0615C202.505 67.3722 202.143 67.6163 201.744 67.778C201.344 67.9396 200.915 68.0153 200.485 68C199.607 67.9995 198.763 67.6609 198.127 67.0539C198.109 67.039 198.095 67.0204 198.086 66.9995C198.076 66.9786 198.071 66.9558 198.071 66.9328C198.071 66.9098 198.076 66.887 198.086 66.8661C198.095 66.8452 198.109 66.8266 198.127 66.8117L198.639 66.1153C198.654 66.0978 198.672 66.0837 198.693 66.074C198.714 66.0644 198.737 66.0593 198.759 66.0593C198.782 66.0593 198.805 66.0644 198.826 66.074C198.847 66.0837 198.865 66.0978 198.88 66.1153C199.097 66.3194 199.351 66.4786 199.629 66.5838C199.907 66.689 200.203 66.7382 200.5 66.7284C200.751 66.7502 201.005 66.7178 201.243 66.6334C201.481 66.5491 201.699 66.4147 201.881 66.2392C202.064 66.0638 202.207 65.8513 202.301 65.6159C202.395 65.3805 202.439 65.1276 202.428 64.874V63.8901C202.21 64.2391 201.906 64.5265 201.546 64.7252C201.186 64.9238 200.782 65.0271 200.372 65.0254C199.999 65.0349 199.629 64.9603 199.288 64.807C198.948 64.6538 198.646 64.4258 198.405 64.1398C197.904 63.5223 197.63 62.7496 197.63 61.9524C197.63 61.1552 197.904 60.3825 198.405 59.7649C198.643 59.4741 198.944 59.2417 199.285 59.0856C199.625 58.9295 199.997 58.8538 200.372 58.8642C200.782 58.861 201.186 58.9629 201.545 59.1602C201.905 59.3575 202.209 59.6438 202.428 59.992V59.1594C202.426 59.1353 202.429 59.1108 202.437 59.088C202.445 59.0652 202.459 59.0446 202.476 59.0278C202.494 59.011 202.515 58.9984 202.538 58.991C202.561 58.9837 202.585 58.9817 202.609 58.9853H203.596C203.62 58.9817 203.644 58.9837 203.667 58.991C203.69 58.9984 203.711 59.011 203.729 59.0278C203.746 59.0446 203.76 59.0652 203.768 59.088C203.776 59.1108 203.779 59.1353 203.777 59.1594V64.7151C203.784 65.1523 203.702 65.5864 203.534 65.9901C203.367 66.3938 203.119 66.7586 202.805 67.0615ZM199.422 63.2088C199.753 63.5348 200.198 63.7173 200.662 63.7173C201.125 63.7173 201.57 63.5348 201.901 63.2088C202.221 62.8606 202.399 62.4039 202.399 61.9297C202.399 61.4555 202.221 60.9988 201.901 60.6505C201.741 60.4822 201.548 60.3495 201.334 60.2609C201.12 60.1722 200.889 60.1296 200.658 60.1358C200.429 60.1314 200.202 60.1757 199.992 60.2657C199.782 60.3557 199.593 60.4894 199.437 60.6581C199.273 60.8253 199.143 61.024 199.057 61.2424C198.97 61.4609 198.928 61.6946 198.933 61.9297C198.927 62.1648 198.967 62.3988 199.051 62.6183C199.135 62.8378 199.261 63.0385 199.422 63.2088Z" fill="#505050"/>
<path d="M210.037 64.0111C210.609 64.0111 211.001 63.7159 211.001 63.2542C211.001 62.1643 207.988 62.4367 207.988 60.5142C207.987 60.2798 208.04 60.0485 208.144 59.8383C208.247 59.6282 208.397 59.445 208.583 59.3032C209.012 58.9666 209.545 58.7925 210.09 58.8112C210.791 58.7939 211.475 59.0363 212.011 59.4924C212.029 59.5073 212.045 59.5262 212.055 59.5479C212.066 59.5695 212.071 59.5932 212.071 59.6173C212.071 59.6413 212.066 59.6651 212.055 59.6867C212.045 59.7083 212.029 59.7273 212.011 59.7422L211.574 60.2114C211.534 60.2441 211.485 60.2619 211.434 60.2619C211.383 60.2619 211.334 60.2441 211.295 60.2114C210.948 59.9744 210.54 59.843 210.12 59.833C209.63 59.833 209.223 60.0828 209.223 60.4764C209.223 60.87 209.698 61.0592 210.308 61.2333C211.174 61.5133 212.282 61.9523 212.282 63.1482C212.287 63.3996 212.233 63.6487 212.126 63.8758C212.019 64.103 211.861 64.3022 211.664 64.4577C211.204 64.8219 210.629 65.0073 210.044 64.9799C209.64 64.9906 209.237 64.9168 208.863 64.763C208.488 64.6093 208.149 64.379 207.867 64.0868C207.847 64.069 207.83 64.047 207.819 64.0221C207.807 63.9973 207.801 63.9703 207.801 63.943C207.801 63.9156 207.807 63.8886 207.819 63.8638C207.83 63.839 207.847 63.8169 207.867 63.7992L208.282 63.3526C208.3 63.3329 208.322 63.3172 208.347 63.3064C208.371 63.2957 208.398 63.2901 208.425 63.2901C208.452 63.2901 208.478 63.2957 208.503 63.3064C208.527 63.3172 208.55 63.3329 208.568 63.3526C208.961 63.7457 209.483 63.98 210.037 64.0111Z" fill="#505050"/>
<path d="M218.904 59.1366V64.768C218.904 64.8891 218.843 64.9421 218.723 64.9421H217.713C217.593 64.9421 217.533 64.8891 217.533 64.768V63.9278C217.314 64.2769 217.01 64.5643 216.65 64.7629C216.291 64.9616 215.886 65.0649 215.476 65.0632C215.102 65.0734 214.731 64.9983 214.391 64.8436C214.05 64.6889 213.749 64.4586 213.51 64.17C212.998 63.5476 212.73 62.759 212.756 61.9523C212.729 61.15 212.997 60.3658 213.51 59.7497C213.746 59.4566 214.046 59.2222 214.387 59.0647C214.728 58.9072 215.101 58.8308 215.476 58.8414C215.886 58.8382 216.29 58.9401 216.65 59.1374C217.01 59.3348 217.313 59.621 217.533 59.9692V59.1366C217.53 59.1125 217.533 59.088 217.541 59.0652C217.55 59.0424 217.563 59.0218 217.58 59.005C217.598 58.9882 217.619 58.9756 217.642 58.9682C217.665 58.9609 217.689 58.9589 217.713 58.9625H218.7C218.726 58.9546 218.753 58.9533 218.779 58.9587C218.805 58.9641 218.829 58.976 218.85 58.9934C218.87 59.0108 218.885 59.033 218.895 59.058C218.904 59.0831 218.907 59.1101 218.904 59.1366ZM217.081 60.6504C216.919 60.4854 216.726 60.3544 216.513 60.265C216.3 60.1756 216.072 60.1295 215.841 60.1295C215.611 60.1295 215.382 60.1756 215.17 60.265C214.957 60.3544 214.764 60.4854 214.602 60.6504C214.276 61.0004 214.1 61.4654 214.112 61.9447C214.106 62.1835 214.147 62.4211 214.234 62.6435C214.32 62.8658 214.451 63.0684 214.617 63.239C214.777 63.4045 214.969 63.5361 215.18 63.6259C215.392 63.7157 215.619 63.762 215.849 63.762C216.079 63.762 216.306 63.7157 216.517 63.6259C216.729 63.5361 216.92 63.4045 217.081 63.239C217.405 62.8866 217.584 62.4245 217.584 61.9447C217.584 61.465 217.405 61.0028 217.081 60.6504ZM214.986 56.162C215.299 55.9378 215.672 55.8138 216.056 55.8063C216.364 55.788 216.667 55.8912 216.9 56.0939C217.012 56.1843 217.101 56.3 217.159 56.4315C217.218 56.5631 217.246 56.7067 217.239 56.8508C217.239 57.2822 216.877 57.6077 216.403 58.0618C216.32 58.1451 216.259 58.2662 216.154 58.1829L215.762 57.8802C215.642 57.7969 215.649 57.7364 215.762 57.6304C215.875 57.5244 216.237 57.3655 216.237 56.987C216.237 56.8508 216.154 56.7827 215.996 56.7827C215.82 56.7967 215.653 56.8685 215.521 56.987C215.502 57.0018 215.479 57.012 215.455 57.0169C215.431 57.0219 215.406 57.0215 215.383 57.0157C215.359 57.0099 215.337 56.9989 215.318 56.9835C215.299 56.968 215.283 56.9486 215.273 56.9265L214.934 56.4269C214.92 56.4067 214.91 56.3839 214.905 56.3599C214.9 56.3358 214.9 56.311 214.905 56.2869C214.91 56.2629 214.92 56.2401 214.934 56.2199C214.948 56.1997 214.966 56.1826 214.986 56.1696V56.162Z" fill="#505050"/>
<path d="M224.817 64.9422C224.697 64.9422 224.636 64.8892 224.636 64.7681V61.8313C224.636 60.7944 224.169 60.1359 223.25 60.1359C223.047 60.1355 222.845 60.18 222.66 60.2663C222.475 60.3526 222.312 60.4786 222.181 60.6354C221.896 60.9409 221.74 61.3448 221.744 61.7632V64.7908C221.744 64.9119 221.683 64.9649 221.563 64.9649H220.576C220.455 64.9649 220.395 64.9119 220.395 64.7908V59.1367C220.393 59.1126 220.396 59.0882 220.404 59.0653C220.412 59.0425 220.426 59.0219 220.443 59.0051C220.461 58.9883 220.482 58.9757 220.505 58.9684C220.528 58.961 220.552 58.9591 220.576 58.9627H221.563C221.587 58.9591 221.611 58.961 221.634 58.9684C221.657 58.9757 221.678 58.9883 221.696 59.0051C221.713 59.0219 221.727 59.0425 221.735 59.0653C221.743 59.0882 221.746 59.1126 221.744 59.1367V60.0148C221.945 59.6609 222.236 59.3663 222.586 59.1604C222.936 58.9546 223.334 58.8446 223.74 58.8416C225.247 58.8416 226 59.8558 226 61.5815V64.7681C226 64.8892 225.94 64.9422 225.819 64.9422H224.817Z" fill="#505050"/>
</g>
<defs>
<clipPath id="clip0">
<rect width="226" height="68" fill="white"/>
</clipPath>
</defs>
</svg>
